<svg width="320" height="320" viewBox="0 0 320 320" fill="none" xmlns="http://www.w3.org/2000/svg">
<g filter="url(#filter0_d_253_1411)">
<path fill-rule="evenodd" clip-rule="evenodd" d="M160 310C242.843 310 310 242.843 310 160C310 77.1573 242.843 10 160 10C77.1573 10 10 77.1573 10 160C10 242.843 77.1573 310 160 310Z" fill="#ECECEE"/>
</g>
<path fill-rule="evenodd" clip-rule="evenodd" d="M204.18 200.5H115.82C113.296 200.5 111.25 198.486 111.25 196V140.845C111.25 138.36 113.296 136.345 115.82 136.345H135.339L142.659 124.294C143.494 123.211 144.801 122.5 146.289 122.5H173.711C174.995 122.5 176.149 123.026 176.981 123.864L176.984 123.859L184.746 136.345H204.18C206.704 136.345 208.75 138.36 208.75 140.845V196C208.75 198.486 206.704 200.5 204.18 200.5ZM160 145.574C146.667 145.574 135.858 156.218 135.858 169.345C135.858 182.473 146.667 193.115 160 193.115C173.333 193.115 184.142 182.473 184.142 169.345C184.142 156.218 173.333 145.574 160 145.574ZM146.029 169.345C146.029 176.942 152.284 183.101 160 183.101C167.717 183.101 173.972 176.942 173.972 169.345C173.972 161.747 167.717 155.588 160 155.588C152.284 155.588 146.029 161.747 146.029 169.345Z" fill="#414141"/>
<mask id="mask0_253_1411" style="mask-type:luminance" maskUnits="userSpaceOnUse" x="111" y="122" width="98" height="79">
<path fill-rule="evenodd" clip-rule="evenodd" d="M204.18 200.5H115.82C113.296 200.5 111.25 198.486 111.25 196V140.845C111.25 138.36 113.296 136.345 115.82 136.345H135.339L142.659 124.294C143.494 123.211 144.801 122.5 146.289 122.5H173.711C174.995 122.5 176.149 123.026 176.981 123.864L176.984 123.859L184.746 136.345H204.18C206.704 136.345 208.75 138.36 208.75 140.845V196C208.75 198.486 206.704 200.5 204.18 200.5ZM160 145.574C146.667 145.574 135.858 156.218 135.858 169.345C135.858 182.473 146.667 193.115 160 193.115C173.333 193.115 184.142 182.473 184.142 169.345C184.142 156.218 173.333 145.574 160 145.574ZM146.029 169.345C146.029 176.942 152.284 183.101 160 183.101C167.717 183.101 173.972 176.942 173.972 169.345C173.972 161.747 167.717 155.588 160 155.588C152.284 155.588 146.029 161.747 146.029 169.345Z" fill="white"/>
</mask>
<g mask="url(#mask0_253_1411)">
</g>
<defs>
<filter id="filter0_d_253_1411" x="0" y="0" width="320" height="320" filterUnits="userSpaceOnUse" color-interpolation-filters="sRGB">
<feFlood flood-opacity="0" result="BackgroundImageFix"/>
<feColorMatrix in="SourceAlpha" type="matrix" values="0 0 0 0 0 0 0 0 0 0 0 0 0 0 0 0 0 0 127 0" result="hardAlpha"/>
<feOffset/>
<feGaussianBlur stdDeviation="5"/>
<feColorMatrix type="matrix" values="0 0 0 0 0 0 0 0 0 0 0 0 0 0 0 0 0 0 0.01 0"/>
<feBlend mode="normal" in2="BackgroundImageFix" result="effect1_dropShadow_253_1411"/>
<feBlend mode="normal" in="SourceGraphic" in2="effect1_dropShadow_253_1411" result="shape"/>
</filter>
</defs>
</svg>
